# xmcd CD database file
#
# Track frame offsets:
#	150
#	6380
#	53467
#	96460
#	132475
#	167690
#	207947
#
# Disc length: 3465 seconds
#
# Revision: 0
# Processed by: cddbd v1.5PL3 Copyright (c) Steve Scherf et al.
# Submitted via: CDex 1.51
#
DISCID=5c0d8707
DTITLE=Aquapit - Live At ONYX
DYEAR=2001
DGENRE=Jazz
TTITLE0=Intro (AQUA)
TTITLE1=Collapse
TTITLE2=Cissy Strut
TTITLE3="So What" Change's Tune
TTITLE4=R.S.A. (rocket speed always)
TTITLE5=Stuck In The Middle
TTITLE6=Naima
EXTD=YEAR: 2001
EXTT0=
EXTT1=
EXTT2=
EXTT3=
EXTT4=
EXTT5=
EXTT6=
PLAYORDER=
